<?xml version="1.0" encoding="utf-8"?>
<!-- Svg Vector Icons : http://www.onlinewebfonts.com/icon -->
<!DOCTYPE svg PUBLIC "-//W3C//DTD SVG 1.1//EN" "http://www.w3.org/Graphics/SVG/1.1/DTD/svg11.dtd">
<svg version="1.1" xmlns="http://www.w3.org/2000/svg" xmlns:xlink="http://www.w3.org/1999/xlink" x="0px" y="0px" viewBox="0 0 1000 1000" enable-background="new 0 0 1000 1000" xml:space="preserve">
<metadata> Svg Vector Icons : http://www.onlinewebfonts.com/icon </metadata>
<g><g><path d="M987.8,823.4c-209.6-9,86.8-238.6-165.6-351.1v-47.1c-73.9-16.1-134.5-54.5-172-128.5l0.6-150.2c-19.2-91.2-197-94.5-219.2-0.2l0,0l-0.3,150.4c-22.4,59.2-71.5,104.1-162.3,128.6V473c-390,125.7,100.3,405.3-255.7,392.5c-4.4,10.2-4.5,19.9,0,29.1c391-15.5-85.4-306.7,255.7-389.5v345c0.1,56.9,26.5,73.2,60,73.2h434.4c48.9,0.1,58.9-29.4,58.9-74.1V500.9c220.7,74.2-79.3,334,165.6,348.5C990.8,841.1,990.7,832.4,987.8,823.4z M460.4,160.5c17.2-69.4,148-67.5,161.3,0v121.3H460.4V160.5z M678.5,644.5c-84.6,36.5-170.7,40.9-258.9,0V482.7c83.1,29,169.7,26.2,258.9,0V644.5z"/></g><g></g><g></g><g></g><g></g><g></g><g></g><g></g><g></g><g></g><g></g><g></g><g></g><g></g><g></g><g></g></g>
</svg>